<svg width="103" height="119" viewBox="0 0 103 119" fill="none" xmlns="http://www.w3.org/2000/svg">
<path d="M22.4459 79.3134L23.3985 80.9199H22.4459L21.5528 79.4324H20.7788V80.9199H19.9453V75.9219H21.791C22.8031 75.9219 23.5176 76.6359 23.5176 77.6474C23.5176 78.4209 23.1008 79.0754 22.4459 79.3134ZM20.7788 78.6589H21.7314C22.2673 78.6589 22.684 78.2424 22.684 77.6474C22.684 77.0524 22.2673 76.6359 21.7314 76.6359H20.7788V78.6589Z" fill="#ADE2B9"/>
<path d="M24.5888 75.9219H27.4466V76.6359H25.3628V78.0639H27.3871V78.7779H25.3628V80.1464H27.3871V80.8604H24.5293V75.9219H24.5888Z" fill="#ADE2B9"/>
<path d="M33.9354 79.1348H33.3996C33.1614 80.2653 32.3279 81.0388 30.9586 81.0388C29.4106 81.0388 28.3984 79.9083 28.3984 78.4803C28.3984 77.1118 29.2915 75.8623 31.0181 75.8623C32.2088 75.8623 33.1019 76.5763 33.1614 77.4688H32.2684C32.1493 76.9928 31.7325 76.5763 31.0181 76.5763C29.8273 76.5763 29.232 77.4688 29.232 78.4803C29.232 79.4918 29.8869 80.3248 30.9586 80.3248C31.7921 80.3248 32.3279 79.9678 32.5065 79.1943H31.5539V78.4803H33.9354V79.1348Z" fill="#ADE2B9"/>
<path d="M34.8887 75.9219H37.7465V76.6359H35.7222V78.0639H37.7465V78.7779H35.7222V80.1464H37.7465V80.8604H34.8887V75.9219Z" fill="#ADE2B9"/>
<path d="M41.5572 79.3134L42.5098 80.9199H41.5572L40.6642 79.4324H39.8902V80.9199H39.0566V75.9219H40.9023C41.9144 75.9219 42.6289 76.6359 42.6289 77.6474C42.6289 78.4209 42.2121 79.0159 41.5572 79.3134ZM39.8902 78.6589H40.8428C41.3786 78.6589 41.7954 78.2424 41.7954 77.6474C41.7954 77.0524 41.3786 76.6359 40.8428 76.6359H39.8902V78.6589Z" fill="#ADE2B9"/>
<path d="M43.6406 75.9219H44.4741V80.8604H43.6406V75.9219Z" fill="#ADE2B9"/>
<path d="M45.8438 75.9219H46.6773L48.642 79.5514V75.9219H49.416V80.8604H48.5825L46.6177 77.2309V80.8604H45.8438V75.9219Z" fill="#ADE2B9"/>
<path d="M56.0253 79.1348H55.4894C55.2513 80.2653 54.4178 81.0388 53.0484 81.0388C51.5004 81.0388 50.4883 79.9083 50.4883 78.4803C50.4883 77.1118 51.3813 75.8623 53.1079 75.8623C54.2987 75.8623 55.1917 76.5763 55.2513 77.4688H54.3582C54.2391 76.9928 53.8224 76.5763 53.1079 76.5763C51.9172 76.5763 51.3218 77.4688 51.3218 78.4803C51.3218 79.4918 51.9767 80.3248 52.9889 80.3248C53.8224 80.3248 54.3582 79.9678 54.5368 79.1943H53.5842V78.4803H55.9657L56.0253 79.1348Z" fill="#ADE2B9"/>
<path d="M56.6797 79.3133H57.5132C57.5132 79.9678 57.8704 80.3248 58.5254 80.3248C59.0612 80.3248 59.3589 80.0868 59.3589 79.6108C59.3589 79.2538 59.1803 79.0158 58.6444 78.8373L57.7514 78.5398C57.156 78.3018 56.7988 77.8258 56.7988 77.2308C56.7988 76.3978 57.4537 75.8623 58.4063 75.8623C59.4184 75.8623 60.0733 76.4573 60.0733 77.4093H59.2398C59.2398 76.8738 58.9421 76.5763 58.4063 76.5763C57.93 76.5763 57.6918 76.8143 57.6918 77.1713C57.6918 77.5283 57.93 77.7663 58.5254 77.9448L59.2398 78.2423C59.8352 78.4803 60.1924 78.9563 60.1924 79.6108C60.1924 80.4438 59.5375 81.0388 58.5254 81.0388C57.3346 81.0388 56.6797 80.3843 56.6797 79.3133Z" fill="#ADE2B9"/>
<path d="M66.4432 79.1348H65.9074C65.6693 80.2653 64.8357 81.0388 63.4664 81.0388C61.9184 81.0388 60.9062 79.9083 60.9062 78.4803C60.9062 77.1118 61.7993 75.8623 63.5259 75.8623C64.7167 75.8623 65.6097 76.5763 65.6693 77.4688H64.7762C64.6571 76.9928 64.2404 76.5763 63.5259 76.5763C62.3351 76.5763 61.7398 77.4688 61.7398 78.4803C61.7398 79.4918 62.3947 80.3248 63.4068 80.3248C64.2404 80.3248 64.7762 79.9678 64.9548 79.1943H64.0022V78.4803H66.3837L66.4432 79.1348Z" fill="#ADE2B9"/>
<path d="M69.7777 80.2654H67.8725L67.6938 80.92H66.8008L68.4678 75.9814H69.1823L70.8493 80.92H69.9563L69.7777 80.2654ZM69.5395 79.5514L68.8251 77.112L68.1106 79.5514H69.5395Z" fill="#ADE2B9"/>
<path d="M72.2199 76.6954H70.791V75.9219H74.4823V76.6954H73.0534V80.9199H72.2199V76.6954Z" fill="#ADE2B9"/>
<path d="M77.3988 80.2654H75.4936L75.3149 80.92H74.4219L76.0889 75.9814H76.8034L78.4704 80.92H77.5774L77.3988 80.2654ZM77.1606 79.5514L76.4461 77.112L75.7317 79.5514H77.1606Z" fill="#ADE2B9"/>
<path d="M79.4238 75.9219H80.2574L82.2221 79.5514V75.9219H82.9961V80.8604H82.1626L80.1978 77.2309V80.8604H79.4238V75.9219Z" fill="#ADE2B9"/>
<path d="M26.9116 55.7517L33.1035 42.7212H29.3526L23.9942 54.0262H22.2081V42.7212H18.8145V70.8052H22.2081V57.4772H23.9942L30.1861 70.8052H33.937L26.9116 55.7517ZM24.7682 56.1087H20.7792V69.5557H20.0647V44.0897H20.7792V55.3947H24.8277L30.2457 43.9707H30.9601L25.4231 55.7517L31.9127 69.5557H31.1387L24.7682 56.1087Z" fill="#ADE2B9"/>
<path d="M47.1545 42.7212V52.5982L47.5118 62.0587H47.3927L44.773 52.8362L41.558 42.7807H36.9141V70.8647H40.3077V57.2987L40.1291 49.8612H40.2482L42.4511 57.0012L46.8568 70.8647H50.4886V42.7212H47.1545ZM49.1788 69.2582H47.9285L40.0696 44.8037H38.9979V69.3772H38.2834V44.1492H40.6054L48.4643 68.5442H48.5239V43.9707H49.2383L49.1788 69.2582Z" fill="#ADE2B9"/>
<path d="M65.9672 42.6021V65.1525L63.8238 67.5326H61.5614L59.418 65.1525V42.6021H55.9648V66.4615L60.0134 70.9836H65.3122L69.3608 66.4615V42.6021H65.9672ZM67.9914 65.9261L64.7169 69.5556H60.6683L57.3937 65.9261V43.7921H58.0487V65.6286L61.0255 68.9011H64.4192L67.3365 65.6286V43.7921H68.051L67.9914 65.9261Z" fill="#ADE2B9"/>
<path d="M72.457 42.6021V45.6961H77.3987V70.8051H80.7923V45.6961H85.7935V42.6021H72.457ZM84.6027 44.4466H79.4825V69.5556H78.768V44.4466H73.7073V43.7921H84.6027V44.4466Z" fill="#ADE2B9"/>
<path d="M12.502 59.0835C12.6806 60.1545 13.7522 60.8685 14.8239 60.6305C15.5979 60.452 16.2528 59.857 16.3719 59.0835H12.502Z" fill="#ADE2B9"/>
<path d="M16.3719 58.4288C16.1933 57.3578 15.1811 56.6438 14.1095 56.8223C13.2759 56.9413 12.621 57.5958 12.502 58.4288H16.3719Z" fill="#ADE2B9"/>
<path d="M86.5668 58.5479C86.4477 59.6188 87.2217 60.5708 88.2934 60.6898C89.0674 60.7493 89.8414 60.3923 90.2581 59.6783L86.5668 58.5479Z" fill="#ADE2B9"/>
<path d="M90.4374 59.0238C90.5565 57.9528 89.8421 56.9413 88.7704 56.8223C87.9369 56.7033 87.1629 57.1198 86.7461 57.8933L90.4374 59.0238Z" fill="#ADE2B9"/>
<path d="M51.6786 5.831L93.7717 30.1665L98.7728 27.251L51.5 0L0 29.6905V84.609L4.94162 81.753V32.5465L51.5 5.712L51.6786 5.831Z" fill="#ADE2B9"/>
<path d="M51.3217 112.99L9.10959 88.6548L4.16797 91.5108L51.5003 118.821L103 89.1308V34.1528L97.9992 37.0088V86.2748L51.5003 113.109L51.3217 112.99Z" fill="#ADE2B9"/>
<path d="M8.75123 79.9084L7.44141 80.6819V33.9744L51.4992 8.56787L91.6871 31.7729L90.3177 32.5464L51.4992 10.1149L8.75123 34.7479V79.9084Z" fill="#ADE2B9"/>
<path d="M51.4994 110.254L11.252 87.0486L12.5618 86.2751L51.4994 108.707L94.2473 84.0736V38.8536L95.5572 38.0801V84.8471L51.4994 110.254Z" fill="#ADE2B9"/>
</svg>
